<svg width="137" height="66" viewBox="0 0 137 66" fill="none" xmlns="http://www.w3.org/2000/svg">
<path fill-rule="evenodd" clip-rule="evenodd" d="M24.4638 46.8591C24.7231 49.4678 25.4408 51.6459 26.8627 54.1657C29.9787 59.7437 35.3964 63.5569 41.7983 64.6704C45.4706 65.3175 49.6201 64.9886 53.0838 63.7573C54.6235 63.2238 57.3368 61.7451 58.7024 60.7176C61.2112 58.8234 63.7086 55.8244 65.0323 53.117C66.2482 50.6299 67.0047 47.2352 66.9367 44.513C66.9021 43.1287 66.8848 43.0824 66.5291 43.0905C66.3351 43.095 65.6363 42.971 64.9857 42.8303L63.8142 42.5615L63.8542 44.1637C63.9032 46.1236 63.6256 47.9665 63.0082 49.8017C60.8103 56.3735 54.8775 61.0857 47.7631 61.8874C39.3583 62.8432 31.4266 58.1229 28.4679 50.4245C27.2387 47.1999 27.1253 42.6579 28.1921 39.3805C30.071 33.6409 34.7185 29.2851 40.7117 27.6376C48.0221 25.6174 56.181 28.4182 60.5871 34.4802C61.3072 35.4597 61.5386 35.6567 62.5204 36.1011C63.6169 36.6051 65.2497 37.2056 65.4922 37.2001C65.8803 37.1912 63.9843 33.8262 62.6142 32.0834C61.4613 30.6158 58.7309 28.1728 57.2036 27.2585C51.8976 24.0342 45.9385 23.1595 39.9919 24.7281C34.0291 26.2971 29.1602 30.2066 26.4627 35.5604C24.6592 39.1349 24.036 42.6822 24.4638 46.8591Z" fill="white"/>
<path fill-rule="evenodd" clip-rule="evenodd" d="M20.2652 0.972888C17.5444 1.15939 15.2608 1.79649 12.6047 3.10179C6.7257 5.96089 2.62817 11.0732 1.31632 17.1955C0.55512 20.7073 0.79806 24.7008 1.99654 28.0571C2.5148 29.5489 3.9886 32.1905 5.0251 33.5268C6.9362 35.982 9.9972 38.4526 12.7828 39.789C15.3418 41.0165 18.8562 41.8246 21.6904 41.8246C23.1319 41.8246 23.1804 41.809 23.1804 41.4672C23.1804 41.2807 23.3262 40.6125 23.4882 39.991L23.7959 38.8722H22.1277C20.0871 38.8722 18.176 38.5614 16.2811 37.9243C9.4951 35.6556 4.7336 29.8441 4.06958 22.9915C3.27599 14.8957 8.3776 7.39049 16.4593 4.73329C19.8441 3.63009 24.5733 3.63009 27.9582 4.73329C33.8858 6.67569 38.3072 11.2441 39.8782 17.0401C41.8054 24.1103 38.6959 31.8797 32.2824 35.9664C31.2459 36.6346 31.0353 36.8521 30.5495 37.7845C29.9988 38.8256 29.3348 40.3795 29.3348 40.6125C29.3348 40.9855 32.8816 39.2451 34.7279 37.9709C36.2827 36.8988 38.8902 34.3348 39.8782 32.8897C43.3602 27.8707 44.4129 22.1679 42.9229 16.4185C41.4329 10.6536 37.4812 5.88319 31.9747 3.16389C28.2983 1.34589 24.6219 0.662188 20.2652 0.972888Z" fill="white"/>
<path fill-rule="evenodd" clip-rule="evenodd" d="M66.3565 0.957389C59.4248 1.71879 53.0599 5.96089 49.8694 11.9278C48.266 14.9113 47.6668 17.1955 47.521 20.785L47.4238 23.2712L48.7843 23.4732C49.5293 23.5819 50.2905 23.7063 50.4686 23.7373C50.7763 23.815 50.7925 23.7529 50.7115 22.5253C50.3876 17.4441 52.1368 12.8757 55.797 9.22409C62.1133 2.91529 72.3651 2.10729 79.7179 7.34389C81.0298 8.27619 82.9895 10.2185 83.864 11.4617C88.0587 17.382 88.1073 25.0271 84.026 31.0095C82.8437 32.7188 80.5439 34.9564 78.9244 35.9198C77.9202 36.5258 77.6935 36.7434 77.2076 37.6291C76.5598 38.8256 75.8958 40.5504 76.0253 40.6902C76.2197 40.8612 80.1066 38.9033 81.4347 37.9709C88.8037 32.7188 91.8971 23.9393 89.3382 15.4862C87.1679 8.33829 80.5439 2.58899 72.8996 1.20599C71.2476 0.895189 68.0085 0.786489 66.3565 0.957389Z" fill="white"/>
<path fill-rule="evenodd" clip-rule="evenodd" d="M113.147 0.97291C109.519 1.33031 105.697 2.80651 102.507 5.10631C97.292 8.88221 94.1011 15.0822 94.1172 21.4687C94.1172 23.2867 94.1011 23.2556 95.607 23.4732C96.32 23.5819 97.016 23.7063 97.146 23.7529C97.373 23.8306 97.389 23.6752 97.292 22.4631C96.919 17.7704 98.911 12.596 102.442 9.13081C104.369 7.25061 107.09 5.60351 109.746 4.73331C113.131 3.63011 117.86 3.63011 121.245 4.73331C126.347 6.41151 130.412 10.0787 132.388 14.8025C133.894 18.423 134.137 22.4631 133.052 26.0837C132.533 27.824 131.141 30.5744 130.088 31.8952C126.784 36.0596 121.828 38.5769 116.467 38.8256C113.908 38.9343 112.03 38.7012 109.827 38.002C106.102 36.8055 102.976 34.6145 100.628 31.5378C99.883 30.5589 99.348 30.2326 97.454 29.6266C95.591 29.0361 95.607 29.0205 96.547 30.7764C97.632 32.7965 98.911 34.4281 100.774 36.1529C103.171 38.3749 105.649 39.82 108.742 40.8145C111.042 41.5448 112.872 41.8245 115.512 41.8245C120.241 41.8245 124.516 40.4882 128.177 37.8466C129.829 36.6656 132.161 34.3348 133.165 32.8897C138.817 24.7629 137.862 14.0877 130.865 7.15741C126.233 2.57341 119.82 0.35141 113.147 0.97291Z" fill="white"/>
<path fill-rule="evenodd" clip-rule="evenodd" d="M91.2998 24.7629C91.1865 25.1669 90.7168 27.2957 90.7168 27.4045C90.7168 27.4822 91.2513 27.5288 91.8991 27.5288C98.021 27.5288 103.317 30.0927 107.058 34.8476C107.787 35.7799 107.998 35.9353 109.05 36.3549C110.621 36.9764 111.933 37.3338 111.933 37.1473C111.933 36.821 110.459 34.226 109.65 33.1228C108.483 31.5223 105.989 29.1759 104.321 28.1193C100.693 25.804 96.709 24.5764 92.8708 24.5764C91.8019 24.5764 91.3322 24.6386 91.2998 24.7629Z" fill="white"/>
<path fill-rule="evenodd" clip-rule="evenodd" d="M83.8337 26.1769C78.8779 28.3679 75.1852 31.7398 73.0636 35.9975C71.4764 39.1985 70.9258 41.5138 70.9258 45.0877C70.942 48.786 71.5412 51.2256 73.2742 54.4732C74.3431 56.4932 75.5739 58.0471 77.5336 59.8496C80.5784 62.6622 83.8661 64.3093 88.2066 65.2261C90.1824 65.6301 94.3447 65.599 96.499 65.1639C100.596 64.3248 104.014 62.5845 106.961 59.8652C109.601 57.4256 111.383 54.7529 112.484 51.614C113.261 49.392 113.553 47.605 113.553 45.1654V43.1143L112.176 42.9278C111.415 42.8346 110.686 42.7103 110.557 42.6637C110.362 42.586 110.346 42.8035 110.427 44.1088C110.589 46.9524 109.974 49.9048 108.613 52.6551C106.168 57.6276 101.114 61.3103 95.43 62.2581C93.4539 62.6 90.5387 62.5534 88.5953 62.1805C83.7689 61.2326 79.6552 58.5288 76.9182 54.4887C75.8331 52.8727 75.169 51.4431 74.5698 49.3298C74.1649 47.9313 74.1325 47.5739 74.1325 45.01C74.1487 42.4772 74.1811 42.0576 74.5698 40.6591C74.8127 39.789 75.3958 38.3439 75.8817 37.396C77.4364 34.397 79.3961 32.2526 82.2466 30.4346C83.3155 29.7509 83.4774 29.5799 83.9957 28.5388C84.6597 27.2336 85.2428 25.6642 85.0808 25.6642C85.016 25.6642 84.4654 25.8972 83.8337 26.1769Z" fill="white"/>
<path fill-rule="evenodd" clip-rule="evenodd" d="M49.1901 29.4401C49.6598 30.9163 51.7976 33.993 53.5306 35.6867C57.5147 39.5714 62.8917 41.8246 68.2038 41.8246H69.7586L70.0177 40.6125C70.1635 39.9599 70.3417 39.2917 70.3902 39.1363C70.5036 38.9033 70.374 38.8722 69.0784 38.8722C68.2848 38.8722 66.9244 38.7634 66.0498 38.6391C61.3207 37.9554 56.7211 35.2205 53.9678 31.4601C53.3524 30.6055 52.3645 30.0617 50.3886 29.4712C49.9027 29.3313 49.4007 29.1915 49.2873 29.1449C49.1253 29.0982 49.1092 29.1759 49.1901 29.4401Z" fill="white"/>
</svg>
