<svg width="376" height="299" viewBox="0 0 376 299" fill="none" xmlns="http://www.w3.org/2000/svg">
<path d="M166.5 291C153.698 210.801 134.335 172.234 63.4999 122.5M189.5 291C187.456 224.751 189.849 187.849 201 122.5M213.5 291C225.371 203.482 245.136 157.78 310.5 84" stroke="#5F2D8A" stroke-width="15" stroke-linecap="round" stroke-dasharray="30 30"/>
<path d="M22.4551 75.3512L40.177 86.7472L56.4916 73.4143L51.1297 93.7904L68.8515 105.186L47.8158 106.383L42.4538 126.76L34.815 107.123L13.7793 108.32L30.094 94.9874L22.4551 75.3512Z" fill="#5F2D8A"/>
<path d="M221.545 19.3216L226.915 57.3586L264.75 64.0049L230.235 80.8668L235.605 118.904L208.903 91.288L174.387 108.15L192.4 74.2205L165.697 46.6047L203.532 53.251L221.545 19.3216Z" fill="#5F2D8A"/>
<path d="M343.284 17.0341L338.746 43.119L362.153 55.495L335.942 59.2404L331.405 85.3253L319.743 61.5551L293.533 65.3005L312.536 46.8644L300.875 23.0942L324.281 35.4702L343.284 17.0341Z" fill="#5F2D8A"/>
</svg>
