<svg width="187" height="193" viewBox="0 0 187 193" fill="none" xmlns="http://www.w3.org/2000/svg">
<path d="M67 89.4883L34.5 102C35 106.5 61.9888 112.592 61.9888 112.592L89.2388 123.092L89.065 107.741C89.0248 104.186 87.0999 100.919 84.0093 99.1617L67 89.4883Z" fill="#391C53"/>
<path d="M0.23877 182.421C0.23877 190.782 9.85033 195.416 16.3368 190.14C40.988 170.088 85.6348 132.823 89.2388 123.092L61.9888 112.592C59.8654 122.752 16.4163 161.07 3.70379 172.103C1.49382 174.021 0.23877 176.777 0.23877 179.703V182.421Z" fill="#5F2D8A"/>
<path d="M41.8842 77.9726C37.5207 79.1926 34.5 83.1527 34.5 87.6836V102L67 89.4883C67 89.4883 137.5 71.5 141 61L102 55.5C100.417 61.0714 59.0709 73.1671 41.8842 77.9726Z" fill="#5F2D8A"/>
<path d="M80.5 33.0857L11.5 39C20.5 50 102 55.5 102 55.5L141 61V48.0701C141 42.9241 137.095 38.6182 131.973 38.1175L80.5 33.0857Z" fill="#391C53"/>
<path d="M177.354 24.7839C182.527 24.3406 186.5 20.0123 186.5 14.8205V10.3938C186.5 4.53401 181.484 -0.0700899 175.646 0.430344L20.646 13.7161C15.4732 14.1594 11.5 18.4877 11.5 23.6795V39L80.5 33.0857L177.354 24.7839Z" fill="#5F2D8A"/>
</svg>
